<?xml version="1.0" encoding="UTF-8" standalone="no"?>
<!-- Created with Inkscape (http://www.inkscape.org/) -->

<svg
   version="1.1"
   id="svg1"
   width="180"
   height="180"
   viewBox="0 0 180 180"
   sodipodi:docname="LOGO.svg"
   inkscape:version="1.4.3 (0d15f75, 2025-12-25)"
   xmlns:inkscape="http://www.inkscape.org/namespaces/inkscape"
   xmlns:sodipodi="http://sodipodi.sourceforge.net/DTD/sodipodi-0.dtd"
   xmlns="http://www.w3.org/2000/svg"
   xmlns:svg="http://www.w3.org/2000/svg">
  <defs
     id="defs1">
    <inkscape:path-effect
       effect="fillet_chamfer"
       id="path-effect12"
       is_visible="true"
       lpeversion="1"
       nodesatellites_param="F,0,0,1,0,0,0,1 @ F,0,0,1,0,0,0,1 @ F,0,0,1,0,0,0,1 @ F,0,0,1,0,0,0,1 @ F,0,0,1,0,0,0,1 @ F,0,0,1,0,0,0,1 @ F,0,0,1,0,0,0,1 @ F,0,0,1,0,0,0,1 @ F,0,0,1,0,0,0,1 @ F,0,0,1,0,0,0,1 @ F,0,0,1,0,0,0,1 @ F,0,0,1,0,0,0,1 @ F,0,0,1,0,0,0,1 @ F,0,0,1,0,0,0,1 @ F,0,0,1,0,0,0,1 @ F,0,0,1,0,0,0,1 @ F,0,0,1,0,0,0,1 @ F,0,0,1,0,0,0,1 @ F,0,0,1,0,0,0,1 @ F,0,0,1,0,0,0,1 @ F,0,0,1,0,0,0,1 @ F,0,0,1,0,0,0,1 @ F,0,0,1,0,0,0,1 | F,0,0,1,0,0,0,1 @ F,0,0,1,0,0,0,1 @ F,0,0,1,0,0,0,1 @ F,0,0,1,0,0,0,1 @ F,0,0,1,0,0,0,1 @ F,0,0,1,0,0,0,1 @ F,0,0,1,0,0,0,1 @ F,0,0,1,0,0,0,1 @ F,0,0,1,0,0,0,1 @ F,0,0,1,0,0,0,1 @ F,0,0,1,0,0,0,1 @ F,0,0,1,0,0,0,1 @ F,0,0,1,0,0,0,1 @ F,0,0,1,0,0,0,1 @ F,0,0,1,0,0,0,1 @ F,0,0,1,0,0,0,1 @ F,0,0,1,0,0,0,1 @ F,0,0,1,0,0,0,1 @ F,0,0,1,0,0,0,1 @ F,0,0,1,0,0,0,1 @ F,0,0,1,0,0,0,1 @ F,0,0,1,0,0,0,1 @ F,0,0,1,0,0,0,1 @ F,0,0,1,0,0,0,1 @ F,0,0,1,0,0,0,1 @ F,0,0,1,0,0,0,1 @ F,0,0,1,0,0,0,1 @ F,0,0,1,0,0,0,1 @ F,0,0,1,0,0,0,1 @ F,0,0,1,0,0,0,1 @ F,0,0,1,0,0,0,1 @ F,0,0,1,0,0,0,1 @ F,0,0,1,0,0,0,1 @ F,0,0,1,0,0,0,1 @ F,0,0,1,0,0,0,1 @ F,0,0,1,0,0,0,1 @ F,0,0,1,0,0,0,1 | F,0,0,1,0,0,0,1 @ F,0,0,1,0,0,0,1 @ F,0,0,1,0,0,0,1 @ F,0,0,1,0,0,0,1 @ F,0,0,1,0,0,0,1 @ F,0,0,1,0,0,0,1 @ F,0,0,1,0,0,0,1 @ F,0,0,1,0,0,0,1 @ F,0,0,1,0,0,0,1"
       radius="0"
       unit="px"
       method="auto"
       mode="F"
       chamfer_steps="1"
       flexible="false"
       use_knot_distance="true"
       apply_no_radius="true"
       apply_with_radius="true"
       only_selected="false"
       hide_knots="false" />
  </defs>
  <sodipodi:namedview
     id="namedview1"
     pagecolor="#ffffff"
     bordercolor="#000000"
     borderopacity="0.25"
     inkscape:showpageshadow="2"
     inkscape:pageopacity="0.0"
     inkscape:pagecheckerboard="0"
     inkscape:deskcolor="#d1d1d1"
     inkscape:zoom="18.337636"
     inkscape:cx="44.144185"
     inkscape:cy="100.91268"
     inkscape:window-width="2560"
     inkscape:window-height="1369"
     inkscape:window-x="-8"
     inkscape:window-y="-8"
     inkscape:window-maximized="1"
     inkscape:current-layer="g1" />
  <g
     inkscape:groupmode="layer"
     inkscape:label="Image"
     id="g1"
     style="display:inline">
    <ellipse
       style="display:inline;fill:none;fill-opacity:1;stroke:#977afa;stroke-width:1.11821;stroke-opacity:1"
       id="path19-1"
       transform="matrix(0.99981214,0.01938244,0.00756075,0.99997142,0,0)"
       ry="17.404509"
       rx="17.468548"
       cy="140.05009"
       cx="118.58259" />
    <path
       style="display:inline;fill:#977afa;fill-opacity:1;stroke:#977afa;stroke-width:0.308483;stroke-opacity:1"
       d="m 43.291387,52.970986 0.204389,-22.199778 3.68e-4,-8.097686 h 9.373523 9.79107 c 0,0 0.100724,6.091698 0.146569,9.138818 0.09424,6.263489 0.02804,12.532908 0.0399,18.792553 0.006,3.18954 -0.02419,9.55483 -0.02419,9.55483 0.02611,4.3365 0.240233,2.422925 -0.936588,1.781886 -0.287422,-0.215754 -0.903467,-0.462132 -1.547617,-0.673391 -0.644151,-0.211259 -1.316406,-0.387399 -1.716247,-0.462679 -0.138226,-0.02602 -0.305126,-0.09131 -0.538853,-0.164183 -0.233727,-0.07288 -0.418599,-0.65464 -0.824133,-0.711057 -0.405533,-0.05642 -1.108848,-0.435824 -1.762494,-0.412464 -0.653646,0.02336 -1.411864,0.218113 -2.389928,0.38456 -0.978064,0.166448 -2.067564,0.35305 -3.045311,0.946792 -0.977748,0.593741 -1.226778,0.206446 -2.066319,0.921755 -0.839541,0.71531 -1.112781,0.489522 -1.676226,1.020673 -0.563445,0.531151 -2.240486,3.050822 -2.33776,3.171563 l -0.894171,1.109899 z"
       id="path7"
       sodipodi:nodetypes="cccccssscsssssssssscc" />
    <path
       style="display:inline;fill:#977afa;fill-opacity:1;stroke:#977afa;stroke-width:0.308483;stroke-opacity:1"
       d="m 114.4473,159.15303 c -4.55505,-1.19865 -8.57274,-4.35784 -10.57644,-8.31647 -0.59787,-1.18119 -1.50124,-2.54049 -2.00749,-3.02066 -1.83999,-1.74522 -4.734386,-1.64869 -6.446348,0.21499 -1.073315,1.16843 -1.492334,2.40607 -1.815514,5.36243 l -0.210762,1.92802 H 68.597685 43.804627 v -20.82263 c 0,-11.45244 0.03835,-20.82262 0.08521,-20.82262 1.138016,0 5.527648,-0.76946 6.414919,-1.12448 1.774288,-0.70993 3.062849,-2.31354 3.062849,-3.8117 0,-1.68159 -1.366118,-2.98197 -4.332554,-4.1241 -2.880165,-1.1089 -6.063737,-3.19197 -7.673813,-5.021111 -7.625354,-8.66286 -4.720631,-21.312586 6.062407,-26.401069 2.736055,-1.291136 4.810812,-1.772426 7.640618,-1.772426 4.854656,0 8.560718,1.615311 12.361604,5.387886 3.857664,3.828929 5.673773,7.999618 5.681007,13.046399 0.0079,5.520182 -2.56523,9.719711 -8.01579,13.082271 l -2.155214,1.32959 -0.0026,16.42674 -0.0026,16.42673 H 82.363233 101.7958 l 1.7151,-2.60421 c 3.03813,-4.61309 6.61811,-7.27839 11.42882,-8.50876 6.38461,-1.63291 12.48515,0.0148 17.11451,4.62247 5.68234,5.6557 6.74841,13.26015 2.86041,20.40368 -1.90467,3.4995 -6.70651,6.93917 -11.35469,8.13363 -2.28847,0.58808 -6.85006,0.58077 -9.11257,-0.0146 z m 12.72424,-8.30002 c 2.24882,-0.94451 1.54082,-2.5356 2.45896,-4.63896 0.9561,-2.19031 0.88032,-5.41945 -0.0278,-7.41197 -0.8831,-1.93762 -3.3961,-4.28259 -5.63425,-5.37762 -2.40071,-1.17456 -6.3886,-0.84002 -8.6499,0.20102 -3.42942,1.57879 -6.67569,5.18282 -6.67789,8.58532 -0.002,3.36888 2.71609,8.69299 5.26566,9.58857 2.95715,1.03875 4.88568,2.57305 7.81194,1.34401 z M 60.43323,97.803262 c 2.12324,-0.896475 3.210702,-2.607832 4.302512,-4.578768 0.817366,-1.475511 1.017981,-2.138552 1.017981,-4.635257 0,-2.140311 -0.629793,-3.329353 -1.097531,-4.272717 -0.868286,-1.751211 -2.894601,-3.710986 -4.909675,-4.655723 -1.520514,-0.712871 -2.244053,-0.871385 -4.9362,-0.871385 -2.639536,0 -3.358246,0.598523 -4.655677,1.237096 -1.887274,0.928884 -4.103147,2.995759 -4.943663,4.815753 -0.95183,2.061026 -0.958889,6.541822 0.04963,8.593961 0.852002,1.73366 2.678746,3.656106 4.180923,4.432912 2.420182,1.251525 5.814845,2.119904 8.537733,0.970245 z"
       id="path8"
       sodipodi:nodetypes="ssssscccssssssssssscccccsssssssssssscsssssssssssssss" />
    <path
       style="display:inline;fill:none;fill-opacity:1;stroke:#ffffff;stroke-width:0.818705;stroke-opacity:1"
       id="path19-2"
       transform="matrix(0.99981708,0.01912612,0.00766211,0.99997065,0,0)"
       sodipodi:type="arc"
       sodipodi:cx="54.614716"
       sodipodi:cy="71.754356"
       sodipodi:rx="12.875128"
       sodipodi:ry="12.798483"
       sodipodi:start="3.4417761"
       sodipodi:end="5.4077099"
       sodipodi:open="true"
       sodipodi:arc-type="arc"
       d="m 42.315334,67.969903 a 12.875128,12.798483 0 0 1 8.646763,-8.488196 12.875128,12.798483 0 0 1 11.900836,2.445358" />
    <ellipse
       style="fill:#ffffff;fill-opacity:0;stroke:#ffffff;stroke-opacity:1"
       id="path11"
       cx="55.023449"
       cy="89.051834"
       rx="10.742933"
       ry="10.415737" />
    <ellipse
       style="display:inline;fill:#ffffff;fill-opacity:0;stroke:#ffffff;stroke-opacity:1"
       id="path11-8"
       cx="119.48605"
       cy="143.03908"
       rx="10.742933"
       ry="10.415737" />
    <ellipse
       style="fill:none;fill-opacity:1;stroke:#977afa;stroke-width:1.12602;stroke-opacity:1"
       id="path19"
       cx="54.525688"
       cy="87.521843"
       rx="17.717403"
       ry="17.390297"
       transform="matrix(0.99981747,0.01910591,0.00767022,0.99997058,0,0)" />
  </g>
</svg>
